# xmcd
#
# Track frame offsets:
# 150
# 11780
# 24777
# 36755
# 50777
# 65447
# 82322
# 94807
# 107350
# 122307
# 143162
# 154495
#
# Disc length: 2233 seconds
#
#
# Revision: 0
# Processed by: cddbd v1.5.1PL0 Copyright (c) Steve Scherf et al.
# Submitted via: FreeRIP 2.942 
#
DISCID=9a08b70c
DTITLE=Goldwing Express - We Need To Be Thankful
DYEAR=1999
DGENRE=Bluegrass Gospel
TTITLE0=Let's Have An Old Time Revival
TTITLE1=Streets Of Gold
TTITLE2=Live In Me
TTITLE3=Silver Hammer And Golden Nails
TTITLE4=What A Savior What A Friend
TTITLE5=What A Friend We Have In Jesus
TTITLE6=I Am The Man Thomas
TTITLE7=Sing Me A Song Of Praise And Glory
TTITLE8=If I Could Hear My Mother Pray Again
TTITLE9=What A Meeting In The Air
TTITLE10=We Need To Be Thankful
TTITLE11=Keep On The Firing Line
EXTD=
EXTT0=
EXTT1=
EXTT2=
EXTT3=
EXTT4=
EXTT5=
EXTT6=
EXTT7=
EXTT8=
EXTT9=
EXTT10=
EXTT11=
PLAYORDER=
